<svg width="100" height="100" viewBox="0 0 100 100" fill="none" xmlns="http://www.w3.org/2000/svg">
<path d="M97.4359 81.1302L19.0657 2.75999C15.6478 -0.657952 10.1064 -0.657952 6.69382 2.75999L2.56346 6.88395C-0.854485 10.303 -0.854485 15.8443 2.56346 19.2569L80.9336 97.6271C84.3526 101.045 89.894 101.045 93.3066 97.6271L97.4305 93.5031C100.855 90.0905 100.855 84.5481 97.4359 81.1302V81.1302Z" fill="#F44336"/>
<path d="M80.9336 2.75998L2.56345 81.1302C-0.854485 84.5481 -0.854485 90.0905 2.56345 93.5031L6.68741 97.6271C10.1064 101.045 15.6478 101.045 19.0604 97.6271L97.4358 19.2622C100.855 15.8443 100.855 10.303 97.4358 6.89035L93.3119 2.76639C89.894 -0.657959 84.3526 -0.657959 80.9336 2.75998V2.75998Z" fill="#F44336"/>
</svg>
