<svg width="20" height="20" viewBox="0 0 20 20" fill="none" xmlns="http://www.w3.org/2000/svg">
<g clip-path="url(#clip0)">
<path d="M16.4819 8.27289V17.5906H12.9638V13.5607C12.9638 13.2074 12.6774 12.9211 12.3241 12.9211H7.82517C7.47185 12.9211 7.18552 13.2075 7.18552 13.5607V17.5906H3.68872V8.27289H2.40942V18.2302C2.40942 18.5836 2.69579 18.8699 3.04907 18.8699H7.8252C8.17853 18.8699 8.46485 18.5835 8.46485 18.2302V14.2004H11.6845V18.2303C11.6845 18.5836 11.9708 18.8699 12.3241 18.8699H17.1216C17.4749 18.8699 17.7612 18.5836 17.7612 18.2303V8.27289H16.4819Z" fill="black"/>
<path d="M19.7976 9.98077L10.5225 1.30276C10.2783 1.07397 9.89881 1.07249 9.65256 1.2987L0.206924 9.97674C-0.0531932 10.2158 -0.0702635 10.6203 0.16876 10.8804C0.294776 11.0179 0.467042 11.0874 0.639972 11.0874C0.794542 11.0874 0.949777 11.0315 1.07259 10.9187L10.0815 2.64198L18.9236 10.9149C19.182 11.1565 19.5863 11.1426 19.8276 10.8848C20.0688 10.6268 20.0555 10.2221 19.7976 9.98077Z" fill="black"/>
</g>
<defs>
<clipPath id="clip0">
<rect width="20" height="20" fill="white"/>
</clipPath>
</defs>
</svg>
