<svg width="20" height="20" viewBox="0 0 20 20" fill="none" xmlns="http://www.w3.org/2000/svg">
<path d="M7.08364 0C3.17782 0 0.000320435 3.1775 0.000320435 7.08332C0.000320435 10.9891 3.17782 14.1666 7.08364 14.1666C10.9895 14.1666 14.167 10.9891 14.167 7.08332C14.167 3.1775 10.9895 0 7.08364 0ZM7.08364 13.3333C3.63696 13.3333 0.833641 10.53 0.833641 7.08332C0.833641 3.63664 3.63696 0.83332 7.08364 0.83332C10.5303 0.83332 13.3336 3.63664 13.3336 7.08332C13.3336 10.53 10.5303 13.3333 7.08364 13.3333Z" fill="black"/>
<path d="M19.8778 19.2892L12.092 11.5033C11.9295 11.3408 11.6653 11.3408 11.5028 11.5033C11.3403 11.6658 11.3403 11.93 11.5028 12.0925L19.2886 19.8783C19.3703 19.9591 19.477 20 19.5836 20C19.6903 20 19.797 19.9592 19.8778 19.8783C20.0403 19.7158 20.0403 19.4517 19.8778 19.2892Z" fill="black"/>
</svg>
