<svg width="20" height="20" viewBox="0 0 20 20" fill="none" xmlns="http://www.w3.org/2000/svg">
<g clip-path="url(#clip0)">
<path d="M19.3346 4.58177C18.9354 4.16352 18.384 3.91638 17.7567 3.91638H14.6008V3.87835C14.6008 3.40307 14.4106 2.94679 14.0875 2.64261C13.7643 2.31942 13.327 2.1293 12.8517 2.1293H7.14829C6.65399 2.1293 6.21673 2.31942 5.89354 2.64261C5.57034 2.9658 5.38023 3.40307 5.38023 3.87835V3.91638H2.24335C1.61597 3.91638 1.06464 4.16352 0.665399 4.58177C0.26616 4.98101 0 5.55136 0 6.15972V15.6274C0 16.2548 0.247148 16.8061 0.665399 17.2053C1.06464 17.6046 1.63498 17.8707 2.24335 17.8707H17.7567C18.384 17.8707 18.9354 17.6236 19.3346 17.2053C19.7338 16.8061 20 16.2358 20 15.6274V6.15972C20 5.53235 19.7529 4.98101 19.3346 4.58177ZM19.0114 15.6274H18.9924C18.9924 15.9696 18.8593 16.2738 18.6312 16.5019C18.403 16.7301 18.0989 16.8631 17.7567 16.8631H2.24335C1.90114 16.8631 1.59696 16.7301 1.36882 16.5019C1.14068 16.2738 1.0076 15.9696 1.0076 15.6274V6.15972C1.0076 5.81752 1.14068 5.51333 1.36882 5.2852C1.59696 5.05706 1.90114 4.92398 2.24335 4.92398H5.91255C6.19772 4.92398 6.42586 4.69584 6.42586 4.41067V3.85934C6.42586 3.65022 6.5019 3.4601 6.63498 3.32702C6.76806 3.19394 6.95818 3.1179 7.1673 3.1179H12.8517C13.0608 3.1179 13.251 3.19394 13.384 3.32702C13.5171 3.4601 13.5932 3.65022 13.5932 3.85934V4.41067C13.5932 4.69584 13.8213 4.92398 14.1065 4.92398H17.7757C18.1179 4.92398 18.4221 5.05706 18.6502 5.2852C18.8783 5.51333 19.0114 5.81752 19.0114 6.15972V15.6274Z" fill="black"/>
<path d="M10 6.21677C8.70722 6.21677 7.52851 6.74909 6.69201 7.58559C5.8365 8.4411 5.32319 9.60079 5.32319 10.8936C5.32319 12.1863 5.85551 13.365 6.69201 14.2015C7.54753 15.0571 8.70722 15.5704 10 15.5704C11.2928 15.5704 12.4715 15.038 13.308 14.2015C14.1635 13.346 14.6768 12.1863 14.6768 10.8936C14.6768 9.60079 14.1445 8.42209 13.308 7.58559C12.4715 6.74909 11.2928 6.21677 10 6.21677ZM12.5856 13.4981C11.9202 14.1445 11.0076 14.5628 10 14.5628C8.99239 14.5628 8.07984 14.1445 7.41445 13.4981C6.74905 12.8327 6.34981 11.9202 6.34981 10.9126C6.34981 9.90497 6.76806 8.99243 7.41445 8.32703C8.07984 7.66163 8.99239 7.26239 10 7.26239C11.0076 7.26239 11.9202 7.68064 12.5856 8.32703C13.251 8.99243 13.6502 9.90497 13.6502 10.9126C13.6692 11.9202 13.251 12.8327 12.5856 13.4981Z" fill="black"/>
<path d="M16.7681 8.06087C17.2825 8.06087 17.6996 7.6438 17.6996 7.12931C17.6996 6.61483 17.2825 6.19775 16.7681 6.19775C16.2536 6.19775 15.8365 6.61483 15.8365 7.12931C15.8365 7.6438 16.2536 8.06087 16.7681 8.06087Z" fill="black"/>
</g>
<defs>
<clipPath id="clip0">
<rect width="20" height="20" fill="white"/>
</clipPath>
</defs>
</svg>
