<svg width="24" height="18" viewBox="0 0 24 18" fill="none" xmlns="http://www.w3.org/2000/svg">
<path d="M20.9332 0H3.0668C1.37573 0 0 1.03184 0 2.30013V15.6999C0 16.9682 1.37573 18 3.0668 18H20.9332C22.6243 18 24 16.9682 24 15.6999V2.30013C24 1.03184 22.6243 0 20.9332 0ZM22.5863 15.6999C22.5863 16.3836 21.8447 16.9398 20.9332 16.9398H3.0668C2.15522 16.9398 1.41361 16.3836 1.41361 15.6999V13.7661L6.06619 10.7971C6.23597 10.6887 6.48366 10.6877 6.65503 10.7944L9.56944 12.6095C9.85045 12.7845 10.263 12.7701 10.5212 12.5762L17.446 7.37473C17.5711 7.28068 17.7171 7.27154 17.7932 7.27446C17.8692 7.27738 18.0133 7.2977 18.125 7.40088L22.5864 11.5208V15.6999H22.5863ZM22.5863 9.839L19.2223 6.73239C18.8887 6.42428 18.3942 6.23591 17.8657 6.21555C17.3375 6.19552 16.8195 6.34465 16.4456 6.62555L9.9765 11.4849L7.55822 9.97882C6.85702 9.54211 5.84433 9.54664 5.15011 9.98965L1.41361 12.374V2.30013C1.41361 1.61645 2.15522 1.06024 3.0668 1.06024H20.9332C21.8448 1.06024 22.5863 1.61645 22.5863 2.30013V9.839Z" fill="black"/>
<path d="M7.55503 2.21466C5.67558 2.21466 4.14661 3.36146 4.14661 4.77098C4.14661 6.18053 5.67563 7.32729 7.55503 7.32729C9.43444 7.32729 10.9635 6.18053 10.9635 4.77098C10.9635 3.36142 9.43448 2.21466 7.55503 2.21466ZM7.55503 6.26709C6.45506 6.26709 5.56022 5.59592 5.56022 4.77098C5.56022 3.946 6.45506 3.27487 7.55503 3.27487C8.655 3.27487 9.54984 3.94604 9.54984 4.77098C9.54984 5.59592 8.655 6.26709 7.55503 6.26709Z" fill="black"/>
</svg>
