<svg width="20" height="20" viewBox="0 0 20 20" fill="none" xmlns="http://www.w3.org/2000/svg">
<g clip-path="url(#clip0)">
<path d="M19.6614 5.10644C19.4509 4.97624 19.1878 4.96435 18.9664 5.07501L14.2857 7.4157V5.71427C14.2857 4.5308 13.3263 3.57141 12.1428 3.57141H2.14286C0.959388 3.57141 0 4.5308 0 5.71427V14.2857C0 15.4692 0.959388 16.4285 2.14286 16.4285H12.1428C13.3263 16.4285 14.2857 15.4692 14.2857 14.2857V12.5843L18.9664 14.9285C19.3193 15.1049 19.7483 14.9618 19.9247 14.6089C19.9748 14.5086 20.0006 14.3978 20 14.2857V5.71427C20.0001 5.46667 19.872 5.23669 19.6614 5.10644ZM7.14287 12.8571C5.5649 12.8571 4.28571 11.5779 4.28571 9.99998C4.28571 8.42201 5.5649 7.14282 7.14287 7.14282C8.72084 7.14282 10 8.42201 10 9.99998C10 11.5779 8.72079 12.8571 7.14287 12.8571Z" fill="black"/>
</g>
<defs>
<clipPath id="clip0">
<rect width="20" height="20" fill="white"/>
</clipPath>
</defs>
</svg>
