<svg width="20" height="20" viewBox="0 0 20 20" fill="none" xmlns="http://www.w3.org/2000/svg">
<g clip-path="url(#clip0)">
<path d="M18.8718 13.6124L18.633 13.4367C17.3029 12.4585 16.5088 10.8885 16.5088 9.23737V6.5065C16.5086 2.91885 13.5899 0 10.0023 0C6.41464 0 3.49579 2.91885 3.49579 6.5065V9.23737C3.49579 10.8885 2.70172 12.4583 1.37161 13.4367L1.13281 13.6124V17.4742H7.43286C7.45682 18.871 8.59985 20 10.0023 20C11.4047 20 12.5476 18.871 12.5717 17.4742H18.8718V13.6124ZM4.66766 9.23737V6.5065C4.66766 3.56491 7.06085 1.17188 10.0023 1.17188C12.9437 1.17188 15.3368 3.56491 15.3368 6.5065V9.23737C15.3368 10.7394 15.8734 12.1867 16.8172 13.3228H3.18741C4.13101 12.1867 4.66766 10.7394 4.66766 9.23737ZM10.0023 18.8281C9.24591 18.8281 8.62793 18.2248 8.60428 17.4742H11.4001C11.3766 18.2248 10.7585 18.8281 10.0023 18.8281ZM2.30469 16.3023V14.4948H17.6999V16.3023H2.30469Z" fill="black"/>
</g>
<defs>
<clipPath id="clip0">
<rect width="20" height="20" fill="white"/>
</clipPath>
</defs>
</svg>
