<svg width="20" height="20" viewBox="0 0 20 20" fill="none" xmlns="http://www.w3.org/2000/svg">
<path d="M17.5 0H2.5C1.12125 0 0 1.12125 0 2.5V13.75C0 15.1287 1.12125 16.25 2.5 16.25H3.75V19.375C3.75 19.6175 3.89 19.8388 4.11 19.9412C4.19375 19.98 4.285 20 4.375 20C4.51875 20 4.66125 19.95 4.775 19.855L9.10125 16.25H17.5C18.8787 16.25 20 15.1287 20 13.75V2.5C20 1.12125 18.8787 0 17.5 0ZM18.75 13.75C18.75 14.4388 18.1887 15 17.5 15H8.875C8.72875 15 8.5875 15.0513 8.475 15.145L5 18.0413V15.625C5 15.28 4.72 15 4.375 15H2.5C1.81125 15 1.25 14.4388 1.25 13.75V2.5C1.25 1.81125 1.81125 1.25 2.5 1.25H17.5C18.1887 1.25 18.75 1.81125 18.75 2.5V13.75Z" fill="black"/>
</svg>
