<svg width="20" height="20" viewBox="0 0 20 20" fill="none" xmlns="http://www.w3.org/2000/svg">
<g clip-path="url(#clip0)">
<path d="M15.1431 1.87437C15.0349 2.06085 14.796 2.12437 14.6092 2.01617L14.5942 2.00749C14.4077 1.89925 14.3442 1.66023 14.4524 1.47363C14.5248 1.34875 14.6559 1.27898 14.7906 1.27898C14.8571 1.27898 14.9246 1.29605 14.9862 1.33183L15.0013 1.3405C15.1878 1.44875 15.2513 1.68777 15.1431 1.87437Z" fill="black"/>
<path d="M18.6603 14.996C17.3251 17.3087 15.1692 18.9629 12.5897 19.6541C10.0103 20.3453 7.3161 19.9905 5.0034 18.6553C2.69074 17.3201 1.03645 15.1642 0.345313 12.5848C-0.345821 10.0054 0.00886688 7.31112 1.34406 4.99847C2.54176 2.92397 4.44535 1.34737 6.70418 0.55917C7.77493 0.185575 8.8927 -0.000869751 10.0088 -0.000869751C11.2222 -0.000869751 12.4335 0.219677 13.5785 0.659716C13.7799 0.737099 13.8803 0.963076 13.8029 1.16444C13.7255 1.36581 13.4995 1.4664 13.2982 1.38886C10.2505 0.217489 6.95122 0.749716 4.48625 2.59995L4.83621 4.42671L5.00485 4.48147C5.64207 4.68851 5.99207 5.37538 5.78512 6.01265L5.66137 6.39347C5.63274 6.48159 5.63289 6.57475 5.66176 6.6628C5.77032 6.99374 5.73153 7.35581 5.55532 7.65628C5.37911 7.95671 5.08203 8.16737 4.7402 8.23421L3.85856 8.40647L2.15746 9.69983C2.05555 9.77733 1.92215 9.79995 1.80035 9.76042L0.804414 9.4369C0.783282 9.79311 0.782969 10.1492 0.803047 10.5034C0.842344 10.4668 0.86793 10.4419 0.883672 10.4256C0.903164 10.3932 0.927305 10.3634 0.955586 10.3376C1.03691 10.2635 1.11059 10.2299 1.26527 10.2299C1.40742 10.23 1.61785 10.2583 1.96531 10.3096C2.29485 10.3583 2.62266 10.4132 2.6259 10.4138C2.75727 10.4358 2.86832 10.5233 2.92059 10.6457C2.97285 10.7682 2.95906 10.9089 2.88403 11.019L2.40508 11.7215L3.0911 12.212C3.1368 12.2447 3.17492 12.2869 3.20285 12.3356L4.26625 14.1921L4.69489 14.6514C5.13289 15.1208 5.25789 15.8076 5.01328 16.4012C4.86899 16.7514 4.61696 17.0428 4.30172 17.2393C4.64313 17.5077 5.00715 17.7555 5.39403 17.9788C6.81348 18.7983 8.36255 19.1955 9.89532 19.2107L9.19782 18.3357L6.61129 17.429C6.50625 17.3922 6.42188 17.3123 6.37946 17.2094L5.65711 15.4583C5.60582 15.3339 5.62211 15.1919 5.70028 15.0824L6.75528 13.6046C6.60418 13.4667 6.45711 13.2659 6.28145 13.0166C6.20442 12.9073 6.13168 12.8041 6.08141 12.7462C6.0377 12.6958 5.99395 12.6466 5.95059 12.5978C5.72368 12.3425 5.48907 12.0785 5.32239 11.7258C4.9559 10.9501 5.02992 10.0485 5.51555 9.37276C5.98512 8.71944 6.75926 8.38733 7.58551 8.48452C7.72012 8.5003 7.84563 8.53136 7.96708 8.56144C8.30196 8.64429 8.40805 8.65257 8.51547 8.55202C8.56774 8.50307 8.57255 8.49382 8.57149 8.32784C8.57075 8.22222 8.56993 8.09081 8.60633 7.94077C8.66465 7.70073 8.8154 7.53483 8.93649 7.40155C8.99669 7.33534 9.05895 7.26683 9.07813 7.22085C9.19997 6.9289 9.14692 6.76722 9.03067 6.41292C9.02071 6.38261 9.01055 6.35167 9.00036 6.31995C8.82376 5.77327 9.06993 5.23101 9.28712 4.75265C9.35766 4.59729 9.42426 4.45065 9.4679 4.32104C9.81911 3.2789 10.0824 3.04022 10.2937 2.94413C10.4043 2.89382 10.5189 2.87175 10.6346 2.87179C11.1977 2.87182 11.7852 3.39464 12.0552 3.72608C12.2247 3.93421 12.2665 4.14261 12.2969 4.29483C12.3121 4.37054 12.3241 4.4303 12.3469 4.46936C12.3818 4.52913 12.4229 4.57546 12.475 4.63413C12.5797 4.75206 12.7101 4.89878 12.7945 5.16475C12.8586 5.36679 12.9052 5.41632 13.0596 5.58069C13.0865 5.60925 13.1151 5.63979 13.1458 5.67323C13.6661 6.23936 13.5321 6.67183 13.3902 7.12972C13.2708 7.51499 13.4797 7.7614 13.9847 8.23167C14.2036 8.43554 14.4299 8.64632 14.6049 8.8996C14.6814 9.01046 14.9143 9.34768 14.7702 9.68194C14.6289 10.0097 14.2698 10.0648 13.9813 10.109C13.8674 10.1265 13.6952 10.1529 13.6404 10.1887C13.3987 10.3467 13.2508 10.6765 13.1078 10.9954C13.0793 11.0589 13.0513 11.1216 13.0228 11.1824C12.972 11.2909 12.9213 11.4222 12.8675 11.5612C12.7254 11.929 12.5644 12.3459 12.2902 12.6365C12.0438 12.8976 11.5792 13.0234 11.1693 13.1344C11.0315 13.1717 10.9013 13.207 10.8155 13.2387C10.7436 13.2652 10.6656 13.27 10.5911 13.2525C10.3916 13.2058 10.2672 13.1542 10.1747 13.0802C10.1503 13.0606 10.078 12.9964 10.0357 12.8931C9.89266 12.9617 9.69602 13.0928 9.57501 13.1734C9.57251 13.1751 9.56997 13.1768 9.56747 13.1785C9.60825 13.3417 9.57133 13.4726 9.53266 13.5544C9.31446 14.016 8.59012 13.9799 8.44723 13.9677C8.36606 13.9609 8.26336 13.9573 8.15473 13.9535C7.98411 13.9474 7.79551 13.9406 7.60891 13.9197L7.61852 13.9465C7.76016 14.3411 8.13704 14.6063 8.55633 14.6063H8.7784C8.99407 14.6063 9.16899 14.7812 9.16899 14.9969C9.16899 15.2125 8.99407 15.3875 8.7784 15.3875H8.55633C7.93383 15.3875 7.36379 15.0598 7.0443 14.5442L6.46168 15.3603L7.03489 16.7497L9.56235 17.6358C9.63165 17.6601 9.69274 17.7035 9.73856 17.7609L10.8621 19.1703C13.733 18.8972 16.4353 17.2876 17.9838 14.6055C18.3963 13.891 18.7014 13.1389 18.9043 12.3697L18.7387 12.222C18.5226 12.0292 18.3959 11.7526 18.3911 11.4631C18.391 11.4599 18.3909 11.4568 18.3908 11.4537L18.1211 12.1955C18.0809 12.3062 18.0217 12.4078 17.9452 12.4973L17.464 13.0607C17.2774 13.2791 17.0058 13.4042 16.7186 13.4042H16.1296C15.9205 13.4042 15.7294 13.2897 15.6308 13.1055C15.5321 12.9212 15.5429 12.6986 15.6589 12.5247L15.7185 12.4352C15.3379 12.1079 14.8976 11.846 14.4289 11.6693L13.6215 13.2159V13.561C13.6215 13.6677 13.5778 13.7698 13.5006 13.8435L12.7735 14.5376C12.7334 14.5758 12.6856 14.6051 12.6333 14.6235L11.9788 14.8535C11.7751 14.9252 11.5522 14.818 11.4808 14.6146C11.4092 14.411 11.5162 14.1881 11.7197 14.1166L12.2949 13.9144L12.8403 13.3938V13.1201C12.8403 13.0571 12.8555 12.9951 12.8847 12.9393L13.8955 11.0031C13.9864 10.8289 14.1927 10.7492 14.3768 10.8174L14.6712 10.9259C15.355 11.1781 15.9888 11.5837 16.5041 12.099C16.6357 12.2307 16.6562 12.4369 16.5529 12.5918L16.5321 12.623H16.7186C16.7769 12.623 16.8321 12.5976 16.87 12.5532L17.3512 11.9898C17.3667 11.9717 17.3787 11.9511 17.3869 11.9286L17.918 10.4683C17.9636 10.3428 18.0702 10.2494 18.2004 10.2205C18.2285 10.2143 18.2568 10.2112 18.285 10.2112C18.3875 10.2112 18.4872 10.2516 18.5612 10.3257L18.814 10.5784C18.974 10.7385 19.0842 10.9411 19.1369 11.1657C19.5278 8.03268 18.2993 4.79175 15.7027 2.7537C15.533 2.62054 15.5034 2.37503 15.6366 2.2053C15.7698 2.03558 16.0152 2.00597 16.185 2.13921C18.0597 3.61057 19.3476 5.71507 19.8115 8.06503C20.2797 10.4376 19.8709 12.8992 18.6603 14.996ZM1.84731 8.95429L3.45797 7.72964C3.50559 7.69343 3.56082 7.66866 3.61949 7.65722L4.59028 7.46753C4.71418 7.44331 4.81754 7.37003 4.88141 7.26112C4.94528 7.15225 4.95871 7.02628 4.91942 6.90632C4.83856 6.65972 4.83817 6.3989 4.91836 6.15214L5.04211 5.77136C5.11606 5.54378 4.99098 5.29843 4.76344 5.22448L4.37528 5.09835C4.23985 5.05436 4.13914 4.94015 4.11239 4.80038L3.79996 3.16956C3.11313 3.79819 2.51008 4.54116 2.02059 5.38901C1.4234 6.42327 1.05027 7.52643 0.885821 8.6419L1.84731 8.95429ZM4.12375 15.1843L3.66426 14.692C3.64375 14.67 3.62582 14.6457 3.61086 14.6196L2.56742 12.7979L1.64004 12.1348C1.46731 12.0113 1.42488 11.7725 1.54449 11.597L1.89133 11.0883C1.69141 11.0585 1.51199 11.034 1.3927 11.021C1.36977 11.043 1.34578 11.0653 1.32098 11.0883C1.22813 11.1746 1.0991 11.2898 0.906758 11.4581C1.22398 13.4215 2.17008 15.2712 3.65805 16.6831C3.94297 16.5933 4.1768 16.3808 4.29102 16.1036C4.41953 15.7918 4.35383 15.4309 4.12375 15.1843ZM7.30852 13.0498C7.48274 13.1479 7.88711 13.1622 8.18235 13.1727C8.30067 13.1769 8.41247 13.1808 8.51231 13.1892C8.56501 13.1936 8.62352 13.1928 8.67872 13.1885C8.65407 13.1252 8.64606 13.0558 8.65676 12.9869C8.67555 12.8657 8.75028 12.7604 8.8584 12.7025C8.93169 12.6633 9.03368 12.5953 9.14165 12.5233C9.44692 12.3198 9.79298 12.0891 10.1181 12.0684C10.4137 12.0492 10.5782 12.2177 10.6486 12.2895C10.6543 12.2952 10.6596 12.3009 10.6652 12.3061C10.7049 12.3384 10.7421 12.3818 10.7697 12.4341C10.8322 12.4162 10.8978 12.3985 10.9651 12.3802C11.1964 12.3176 11.6269 12.201 11.722 12.1003C11.8909 11.9212 12.0226 11.5803 12.1388 11.2795C12.1975 11.1275 12.253 10.9841 12.3152 10.8511C12.342 10.794 12.3683 10.7352 12.395 10.6757C12.5752 10.2737 12.7795 9.81796 13.2129 9.53468C13.4094 9.4062 13.6503 9.36929 13.8629 9.33667C13.8886 9.33272 13.9181 9.32819 13.948 9.32327C13.8218 9.14725 13.6422 8.97999 13.4524 8.80323C12.9688 8.35292 12.367 7.79245 12.6441 6.89835C12.775 6.47616 12.7811 6.43054 12.5707 6.20171C12.542 6.1705 12.5153 6.14206 12.4903 6.11542C12.3101 5.92362 12.1678 5.77214 12.05 5.40104C12.0158 5.29327 11.9715 5.24335 11.8909 5.15272C11.8266 5.08022 11.7464 4.98991 11.6724 4.86335C11.5838 4.71171 11.5545 4.56569 11.5311 4.44839C11.5079 4.33296 11.4948 4.27503 11.4495 4.2194C11.3463 4.09276 11.1539 3.90886 10.9563 3.78335C10.7727 3.66679 10.6656 3.65085 10.629 3.65304C10.5874 3.69772 10.4364 3.89339 10.2082 4.57046C10.152 4.73749 10.074 4.90936 9.99848 5.07558C9.83212 5.44198 9.66012 5.82089 9.7438 6.07983C9.75368 6.11038 9.76344 6.14022 9.77305 6.1694C9.90672 6.57683 10.0329 6.96155 9.79915 7.52171C9.72797 7.69229 9.61465 7.81694 9.51477 7.92694C9.45012 7.99808 9.37688 8.0787 9.36559 8.12511C9.35184 8.18171 9.35227 8.24706 9.35278 8.32272C9.35411 8.52682 9.35614 8.83522 9.04954 9.12233C8.61727 9.52694 8.11321 9.40229 7.77961 9.31979C7.67715 9.29448 7.58036 9.2705 7.49458 9.26042C6.94583 9.19612 6.4559 9.40315 6.15004 9.82878C5.83008 10.274 5.78364 10.8731 6.02887 11.3922C6.14758 11.6434 6.32692 11.8453 6.53457 12.0789C6.57993 12.1299 6.62571 12.1814 6.67149 12.2341C6.74766 12.3219 6.83149 12.4408 6.92012 12.5667C7.02594 12.7169 7.22297 12.9966 7.30852 13.0498Z" fill="black"/>
<path d="M16.0165 6.55163L15.8286 7.25999C15.7875 7.41468 15.6563 7.52866 15.4974 7.54765C15.3383 7.56624 15.1841 7.48671 15.1077 7.34605C15.0649 7.26714 15.0264 7.18355 14.9891 7.10273C14.9264 6.96675 14.8616 6.82612 14.7941 6.74851C14.7562 6.70491 14.6589 6.65792 14.5648 6.61253C14.3399 6.50401 14.0319 6.35538 13.9143 5.9803C13.8412 5.74765 13.8685 5.56358 13.8884 5.42921C13.9056 5.31268 13.9096 5.27229 13.8784 5.19901L13.8745 5.18991C13.7502 4.89815 13.5188 4.35499 13.8432 3.89323C14.0746 3.5637 14.318 3.47897 14.5071 3.47897C14.544 3.47885 14.5789 3.4821 14.6112 3.48737C15.0097 3.55249 15.3092 3.96694 15.554 4.79179L16.0134 6.34026C16.0339 6.40913 16.0349 6.48226 16.0165 6.55163ZM14.8051 5.01401C14.6803 4.59346 14.57 4.39714 14.5062 4.3101C14.4989 4.31948 14.4909 4.3301 14.4824 4.34225C14.4078 4.44858 14.5193 4.71046 14.5932 4.88378L14.5971 4.89292C14.7162 5.17237 14.6843 5.38698 14.6612 5.5437C14.6463 5.64405 14.641 5.68718 14.6596 5.74644C14.6749 5.79515 14.7664 5.84241 14.9043 5.90897C14.9655 5.93851 15.0328 5.97097 15.1007 6.01026L14.8051 5.01401Z" fill="black"/>
<path d="M10.548 15.357L10.5217 15.3662C10.3183 15.4375 10.0952 15.3305 10.0238 15.1269C9.95243 14.9234 10.0596 14.7005 10.2631 14.6291L10.2895 14.6199C10.3322 14.6049 10.3758 14.5978 10.4188 14.5978C10.58 14.5978 10.7309 14.6984 10.7873 14.8592C10.8587 15.0628 10.7516 15.2857 10.548 15.357Z" fill="black"/>
</g>
<defs>
<clipPath id="clip0">
<rect width="20" height="20" fill="white" transform="matrix(1 0 0 -1 0 20)"/>
</clipPath>
</defs>
</svg>
