<svg width="18" height="18" viewBox="0 0 18 18" fill="none" xmlns="http://www.w3.org/2000/svg">
<path d="M16.6867 2.61105C15.7989 1.60369 14.5673 1.04892 13.2188 1.04892C11.3221 1.04892 10.1214 2.18165 9.44807 3.13193C9.27337 3.37851 9.12477 3.62577 9 3.85843C8.87523 3.62577 8.72666 3.37851 8.55193 3.13193C7.87862 2.18165 6.67786 1.04892 4.78125 1.04892C3.43273 1.04892 2.2011 1.60372 1.31326 2.61109C0.466418 3.57205 0 4.85905 0 6.23499C0 7.73276 0.584754 9.12582 1.84025 10.619C2.96234 11.9535 4.57661 13.3291 6.4459 14.922C7.14245 15.5156 7.86277 16.1294 8.62963 16.8004L8.65266 16.8205C8.75208 16.9076 8.87604 16.9511 9 16.9511C9.12396 16.9511 9.24792 16.9076 9.34734 16.8205L9.37037 16.8004C10.1372 16.1294 10.8576 15.5156 11.5542 14.9219C13.4234 13.3291 15.0377 11.9535 16.1597 10.619C17.4152 9.12579 18 7.73276 18 6.23499C18 4.85905 17.5336 3.57205 16.6867 2.61105ZM10.8701 14.1192C10.2696 14.6309 9.65162 15.1575 9 15.724C8.34841 15.1576 7.7304 14.6309 7.12983 14.1192C3.4715 11.0018 1.05469 8.94227 1.05469 6.23499C1.05469 5.11597 1.42752 4.07661 2.10452 3.30841C2.7893 2.53149 3.73989 2.10361 4.78125 2.10361C6.22719 2.10361 7.16189 2.9944 7.69134 3.74168C8.16627 4.4119 8.41409 5.08753 8.4986 5.34688C8.5693 5.56397 8.7717 5.71089 9 5.71089C9.2283 5.71089 9.4307 5.56397 9.5014 5.34688C9.58591 5.08753 9.83373 4.4119 10.3087 3.74164C10.8381 2.9944 11.7728 2.10361 13.2188 2.10361C14.2601 2.10361 15.2107 2.53149 15.8954 3.30841C16.5725 4.07661 16.9453 5.11597 16.9453 6.23499C16.9453 8.94227 14.5285 11.0018 10.8701 14.1192Z" fill="black"/>
</svg>
