<svg width="18" height="18" viewBox="0 0 18 18" fill="none" xmlns="http://www.w3.org/2000/svg">
<path d="M7.87435 0C3.53352 0 0.000335693 2.87627 0.000335693 6.4117C0.000335693 8.20247 0.900223 9.88189 2.48965 11.09C1.98459 11.8751 1.28493 12.7402 0.427782 12.9528C0.156691 13.0202 -0.0244112 13.2767 0.00371027 13.5546C0.0307069 13.8335 0.260178 14.0484 0.539143 14.0607C0.552642 14.0607 0.602135 14.063 0.682 14.063C1.2658 14.063 3.5099 13.9696 6.05545 12.649C6.63588 12.7649 7.24668 12.8234 7.87435 12.8234C12.2152 12.8234 15.7484 9.94713 15.7484 6.4117C15.7484 2.87627 12.2152 0 7.87435 0ZM7.87435 11.6985C7.25568 11.6985 6.65838 11.6344 6.09707 11.5073C5.96546 11.4769 5.82598 11.4961 5.70562 11.5613C4.61676 12.1485 3.57401 12.4859 2.71687 12.6794C3.11395 12.216 3.44578 11.6985 3.72812 11.2205C3.8811 10.9618 3.80236 10.6288 3.55152 10.4646C2.00933 9.45444 1.12519 7.9775 1.12519 6.4117C1.12519 3.49606 4.15219 1.12486 7.87435 1.12486C11.5965 1.12486 14.6235 3.49606 14.6235 6.4117C14.6235 9.32621 11.5965 11.6985 7.87435 11.6985Z" fill="black"/>
<path d="M17.5741 16.8796C16.9307 16.7165 16.3086 16.198 15.7226 15.3352C17.1759 14.2104 17.9981 12.6614 17.9981 11.0124C17.9981 10.2306 17.8114 9.46007 17.4436 8.72441C17.3041 8.44545 16.9633 8.33633 16.6888 8.47357C16.411 8.61305 16.2985 8.95051 16.4368 9.22835C16.7259 9.80653 16.8733 10.4061 16.8733 11.0124C16.8733 12.4387 16.0634 13.7885 14.6517 14.7154C14.3997 14.8796 14.3232 15.2137 14.4773 15.4724C14.7552 15.9415 15.042 16.3453 15.3412 16.685C14.5774 16.5264 13.6629 16.2396 12.7079 15.7255C12.5898 15.6614 12.4503 15.6434 12.3198 15.6715C10.0589 16.1687 7.62354 15.5804 6.09823 14.2351C5.86313 14.0281 5.5088 14.0517 5.30408 14.2846C5.09823 14.5174 5.12073 14.8729 5.35357 15.0787C7.09823 16.6153 9.80578 17.3082 12.3581 16.8122C14.4053 17.865 16.2445 18 17.0555 18C17.3131 18 17.4661 17.9865 17.4908 17.9843C17.7631 17.9584 17.9779 17.7402 17.9981 17.4679C18.0184 17.1946 17.8395 16.9471 17.5741 16.8796Z" fill="black"/>
</svg>
